<?xml version="1.0" standalone="no"?>
<!DOCTYPE svg PUBLIC "-//W3C//DTD SVG 20010904//EN"
 "http://www.w3.org/TR/2001/REC-SVG-20010904/DTD/svg10.dtd">
<svg version="1.0" xmlns="http://www.w3.org/2000/svg"
 width="355.000000pt" height="355.000000pt" viewBox="0 0 355.000000 355.000000"
 preserveAspectRatio="xMidYMid meet">
<metadata>
Created by potrace 1.11, written by Peter Selinger 2001-2013
</metadata>
<g transform="translate(0.000000,355.000000) scale(0.100000,-0.100000)"
fill="#000000" stroke="none">
<path d="M1682 2900 c-32 -13 -39 -40 -36 -137 2 -103 15 -122 90 -129 196
-19 372 -82 534 -193 83 -57 223 -198 274 -276 22 -33 47 -71 56 -85 25 -39
88 -189 104 -250 20 -71 24 -96 41 -223 9 -71 30 -80 173 -78 49 1 66 5 83 22
19 19 21 29 15 98 -43 573 -485 1091 -1040 1221 -145 34 -257 46 -294 30z"/>
<path d="M892 2488 c-20 -6 -40 -21 -53 -41 -19 -31 -19 -47 -16 -642 3 -667
-1 -617 69 -762 74 -154 205 -265 378 -320 65 -20 222 -25 300 -8 241 51 433
249 477 490 13 70 6 217 -12 280 -57 197 -210 360 -401 425 -97 34 -153 22
-183 -37 -7 -14 -12 -76 -12 -155 0 -152 5 -165 86 -209 157 -87 158 -295 1
-376 -39 -20 -134 -20 -175 1 -50 26 -87 69 -104 122 -14 42 -16 124 -15 605
0 398 -3 562 -11 578 -24 45 -55 54 -179 56 -65 1 -132 -2 -150 -7z"/>
<path d="M1688 2488 c-40 -14 -49 -63 -39 -220 1 -23 38 -46 81 -52 155 -20
288 -86 399 -197 104 -103 170 -230 193 -370 18 -110 28 -119 149 -119 94 0
98 1 119 27 17 22 20 35 14 77 -3 28 -7 53 -9 56 -2 3 -6 25 -10 49 -7 49 -47
166 -78 226 -30 61 -111 174 -159 226 -146 155 -367 273 -552 295 -24 2 -52 6
-62 8 -11 2 -31 -1 -46 -6z"/>
</g>
</svg>
